<svg xmlns="http://www.w3.org/2000/svg" width="24" height="24" viewBox="0 0 24 24" fill="none" role="img" aria-label="Source">
<title>Source</title>

<defs>
  <linearGradient id="blue" x1="4" y1="3" x2="20" y2="21" gradientUnits="userSpaceOnUse">
    <stop offset="0" stop-color="#2AA8FF"/><stop offset="1" stop-color="#0874EA"/>
  </linearGradient>
  <linearGradient id="ice" x1="5" y1="4" x2="19" y2="20" gradientUnits="userSpaceOnUse">
    <stop offset="0" stop-color="#FFFFFF"/><stop offset="1" stop-color="#DDEEFF"/>
  </linearGradient>
  <linearGradient id="blueSoft" x1="5" y1="4" x2="19" y2="20" gradientUnits="userSpaceOnUse">
    <stop offset="0" stop-color="#EAF7FF"/><stop offset="1" stop-color="#CDE9FF"/>
  </linearGradient>
  <linearGradient id="red" x1="5" y1="4" x2="19" y2="20" gradientUnits="userSpaceOnUse">
    <stop offset="0" stop-color="#FF8A84"/><stop offset="1" stop-color="#E85252"/>
  </linearGradient>
  <linearGradient id="green" x1="5" y1="4" x2="19" y2="20" gradientUnits="userSpaceOnUse">
    <stop offset="0" stop-color="#73D995"/><stop offset="1" stop-color="#2FAC65"/>
  </linearGradient>
  <linearGradient id="amber" x1="5" y1="4" x2="19" y2="20" gradientUnits="userSpaceOnUse">
    <stop offset="0" stop-color="#FFD978"/><stop offset="1" stop-color="#F2A72D"/>
  </linearGradient>
  <linearGradient id="violet" x1="5" y1="4" x2="19" y2="20" gradientUnits="userSpaceOnUse">
    <stop offset="0" stop-color="#A99CFF"/><stop offset="1" stop-color="#7367E8"/>
  </linearGradient>
  <linearGradient id="teal" x1="5" y1="4" x2="19" y2="20" gradientUnits="userSpaceOnUse">
    <stop offset="0" stop-color="#68DED4"/><stop offset="1" stop-color="#25AFA5"/>
  </linearGradient>
  <linearGradient id="pink" x1="5" y1="4" x2="19" y2="20" gradientUnits="userSpaceOnUse">
    <stop offset="0" stop-color="#F5A4CE"/><stop offset="1" stop-color="#D85B9A"/>
  </linearGradient>
</defs>

<rect x="4.6" y="4.2" width="11.8" height="15.6" rx="2.2" fill="url(#ice)" stroke="#8EC7F4" stroke-width="1"/>
<path d="M7.2 8H13.8M7.2 10.8H12.5M7.2 13.6H10.8" stroke="#4E92C8" stroke-width="0.95" stroke-linecap="round"/>
<path d="M14.3 14.8L16.1 13C17.25 11.85 19.05 11.85 20.2 13C21.35 14.15 21.35 15.95 20.2 17.1L18.4 18.9" stroke="#0A72DF" stroke-width="1.25" stroke-linecap="round"/>
<path d="M16.9 16.3L15.1 18.1C13.95 19.25 12.15 19.25 11 18.1" stroke="#0A72DF" stroke-width="1.25" stroke-linecap="round"/>

</svg>
